<svg width="1440" height="5085" viewBox="0 0 1440 5085" fill="none" xmlns="http://www.w3.org/2000/svg">
<g clip-path="url(#clip0_4_2)">
<rect width="1440" height="5085" fill="white"/>
<path d="M269.02 2471.63C48.2123 2471.63 -196.33 2322.72 -291 2248.27L-14.99 -103L1537.07 -58.3298C1557.07 817.476 1579.47 2559.34 1509.07 2520.36C1421.06 2471.63 1105.05 2390.41 917.044 2370.1C729.037 2349.8 545.03 2471.63 269.02 2471.63Z" fill="url(#paint0_linear_4_2)"/>
<path d="M1119.64 2466.92C1361.48 2466.92 1629.31 2303.83 1733 2222.29L1430.7 -353L-269.168 -304.074C-291.074 655.174 -315.608 2562.99 -238.5 2520.29C-142.116 2466.92 203.992 2377.96 409.904 2355.73C615.817 2333.49 817.348 2466.92 1119.64 2466.92Z" fill="url(#paint1_linear_4_2)" fill-opacity="0.5"/>
<path d="M461 823C249.4 821 10.8333 691.167 -82 626.5L-28 -84H1470L1609.5 740.5C1544 681 1362 530 1052.5 584C786.502 630.41 725.5 825.5 461 823Z" fill="url(#paint2_linear_4_2)"/>
<g filter="url(#filter0_d_4_2)">
<path d="M290.47 444.815C263.716 517.064 578.036 659.122 738.54 721.119C514.614 651.813 79.8918 486.935 132.41 381.877C198.058 250.554 512.139 287.983 331.062 189.284C186.2 110.325 -263.065 151.841 -469.59 182.469C-402.805 167.158 -200.226 123.794 75.8073 72.8234C420.848 9.11035 645.767 256.778 624.169 334.115C602.571 411.452 323.912 354.503 290.47 444.815Z" fill="url(#paint3_linear_4_2)"/>
</g>
<path d="M492.5 885.5C312.9 897.1 69 784 -30.5 726C-96.8334 726 -189.7 714.6 -30.5 783C168.5 868.5 264.013 928 492.5 928C700 928 926.216 700.5 1137.5 689C1306.53 679.8 1465.59 747.833 1524 783C1557.17 778.333 1606.5 760.4 1538.5 726C1453.5 683 1325 646.5 1137.5 638C950 629.5 717 871 492.5 885.5Z" fill="url(#paint4_linear_4_2)"/>
<g filter="url(#filter1_d_4_2)">
<path d="M615 141C637.4 56.2 265.667 -70.3333 77 -123C338.333 -69 849 70.2 801 195C741 351 381 343 597 435C769.8 508.6 1274.33 412.333 1505 355C1431 379.667 1206.2 451 899 539C515 649 233 393 249 303C265 213 587 247 615 141Z" fill="url(#paint5_linear_4_2)"/>
</g>
<path d="M-212.814 4365.7C-293.55 4242.37 -259.048 4076.96 -135.75 3996.25C-12.452 3915.53 152.95 3950.08 233.686 4073.41C314.423 4196.74 279.92 4362.15 156.622 4442.86C33.3242 4523.58 -132.078 4489.03 -212.814 4365.7Z" fill="url(#paint6_linear_4_2)"/>
<path d="M85.2708 4275.61C-5.53996 4136.89 33.2684 3950.84 171.952 3860.05C310.635 3769.27 496.677 3808.12 587.487 3946.84C678.298 4085.56 639.49 4271.61 500.807 4362.4C362.123 4453.19 176.082 4414.33 85.2708 4275.61Z" fill="url(#paint7_linear_4_2)"/>
</g>
<defs>
<filter id="filter0_d_4_2" x="-526.59" y="9.45694" width="1322.13" height="772.662" filterUnits="userSpaceOnUse" color-interpolation-filters="sRGB">
<feFlood flood-opacity="0" result="BackgroundImageFix"/>
<feColorMatrix in="SourceAlpha" type="matrix" values="0 0 0 0 0 0 0 0 0 0 0 0 0 0 0 0 0 0 127 0" result="hardAlpha"/>
<feOffset dy="4"/>
<feGaussianBlur stdDeviation="28.5"/>
<feComposite in2="hardAlpha" operator="out"/>
<feColorMatrix type="matrix" values="0 0 0 0 0.117647 0 0 0 0 0.227451 0 0 0 0 0.529412 0 0 0 0.33 0"/>
<feBlend mode="normal" in2="BackgroundImageFix" result="effect1_dropShadow_4_2"/>
<feBlend mode="normal" in="SourceGraphic" in2="effect1_dropShadow_4_2" result="shape"/>
</filter>
<filter id="filter1_d_4_2" x="20" y="-176" width="1542" height="802.984" filterUnits="userSpaceOnUse" color-interpolation-filters="sRGB">
<feFlood flood-opacity="0" result="BackgroundImageFix"/>
<feColorMatrix in="SourceAlpha" type="matrix" values="0 0 0 0 0 0 0 0 0 0 0 0 0 0 0 0 0 0 127 0" result="hardAlpha"/>
<feOffset dy="4"/>
<feGaussianBlur stdDeviation="28.5"/>
<feComposite in2="hardAlpha" operator="out"/>
<feColorMatrix type="matrix" values="0 0 0 0 0.117647 0 0 0 0 0.227451 0 0 0 0 0.529412 0 0 0 0.33 0"/>
<feBlend mode="normal" in2="BackgroundImageFix" result="effect1_dropShadow_4_2"/>
<feBlend mode="normal" in="SourceGraphic" in2="effect1_dropShadow_4_2" result="shape"/>
</filter>
<linearGradient id="paint0_linear_4_2" x1="677" y1="945" x2="633" y2="2521" gradientUnits="userSpaceOnUse">
<stop offset="0.362669" stop-color="white" stop-opacity="0.5"/>
<stop offset="1" stop-color="#DEDCDC"/>
</linearGradient>
<linearGradient id="paint1_linear_4_2" x1="721" y1="701" x2="721" y2="2521" gradientUnits="userSpaceOnUse">
<stop offset="0.394686" stop-color="white" stop-opacity="0.36"/>
<stop offset="1" stop-color="#CDCDCD"/>
</linearGradient>
<linearGradient id="paint2_linear_4_2" x1="1351" y1="260" x2="-22" y2="-55.5001" gradientUnits="userSpaceOnUse">
<stop stop-color="#1C3987"/>
<stop offset="1" stop-color="#899DD0"/>
</linearGradient>
<linearGradient id="paint3_linear_4_2" x1="-198" y1="-165" x2="774" y2="709" gradientUnits="userSpaceOnUse">
<stop offset="0.252999" stop-color="#1E3A87"/>
<stop offset="1" stop-color="#546CAD"/>
</linearGradient>
<linearGradient id="paint4_linear_4_2" x1="-90.5" y1="712" x2="1220" y2="692" gradientUnits="userSpaceOnUse">
<stop stop-color="#1C3987"/>
<stop offset="1" stop-color="#2E3D65"/>
</linearGradient>
<linearGradient id="paint5_linear_4_2" x1="473" y1="129" x2="1543" y2="399" gradientUnits="userSpaceOnUse">
<stop stop-color="#1E3A87"/>
<stop offset="1" stop-color="#546CAD"/>
</linearGradient>
<linearGradient id="paint6_linear_4_2" x1="707.518" y1="4572.63" x2="93.6314" y2="3908.57" gradientUnits="userSpaceOnUse">
<stop stop-color="#6D83B9"/>
<stop offset="1" stop-color="#1C3987"/>
</linearGradient>
<linearGradient id="paint7_linear_4_2" x1="707.518" y1="4572.63" x2="93.6314" y2="3908.57" gradientUnits="userSpaceOnUse">
<stop stop-color="#6D83B9"/>
<stop offset="1" stop-color="#1C3987"/>
</linearGradient>
<clipPath id="clip0_4_2">
<rect width="1440" height="5085" fill="white"/>
</clipPath>
</defs>
</svg>
